<svg width="58" height="59" viewBox="0 0 58 59" fill="none" xmlns="http://www.w3.org/2000/svg">
<path d="M47.7637 9.52178L47.7683 48.3322C39.6951 50.1476 23.3812 53.6301 22.7112 53.0376C22.0412 52.445 9.78347 39.4152 3.73836 32.9743L14.2668 3.18084L47.7637 9.52178Z" fill="#A00000"/>
<path d="M12.5 7.99994L6 31.9999L8 42.9999L38 49.9999L51 31.9999L44 7.99994H12.5Z" fill="#E02200"/>
<path d="M11.5 40.4999L32.5 51.4999L46.5 40.4999L50 21.9999L32.5 6.99994L8 23.4999L11.5 40.4999Z" fill="#FF5900"/>
<path fill-rule="evenodd" clip-rule="evenodd" d="M19.5 48.4999L17 16.4999L27.5 10.9999L37.5 17.4999L32.5 27.4999L24 29.9999L25 47.4999L19.5 48.4999ZM22.5 19.4999L24 22.9999L28 20.9999L31 17.4999H27L22.5 19.4999Z" fill="white"/>
<path d="M37 27.9999L26 30.9999L27.5 46.9999L41 42.9999L40 37.9999L31.5 40.9999L30.5 34.9999L38 32.4999L37 27.9999Z" fill="white"/>
</svg>
