<svg width="158" height="162" viewBox="0 0 158 162" fill="none" xmlns="http://www.w3.org/2000/svg">
<path d="M131.415 25.8752L131.427 132.703C109.215 137.7 64.3298 147.285 62.4864 145.654C60.643 144.023 26.9178 108.158 10.2855 90.4295L39.2529 8.42149L131.415 25.8752Z" fill="#A00000"/>
<path d="M34.3919 21.6863L16.5081 87.7474L22.0108 118.025L104.551 137.293L140.319 87.7474L121.059 21.6863H34.3919Z" fill="#E02200"/>
<path d="M31.6405 111.144L89.4189 141.422L127.938 111.144L137.568 60.222L89.4189 18.9338L22.0108 64.3508L31.6405 111.144Z" fill="#FF5900"/>
<path fill-rule="evenodd" clip-rule="evenodd" d="M53.6514 133.165L46.773 45.083L75.6622 29.944L103.176 47.8355L89.419 75.361L66.0325 82.2424L68.7838 130.412L53.6514 133.165ZM61.9054 53.3406L66.0325 62.9745L77.0379 57.4694L85.2919 47.8355H74.2865L61.9054 53.3406Z" fill="white"/>
<path d="M101.8 76.7373L71.5352 84.9949L75.6622 129.036L112.805 118.025L110.054 104.263L86.6676 112.52L83.9163 96.0051L104.551 89.1237L101.8 76.7373Z" fill="white"/>
</svg>
